<?xml version="1.0" standalone="no"?>
<!DOCTYPE svg PUBLIC "-//W3C//DTD SVG 20010904//EN"
 "http://www.w3.org/TR/2001/REC-SVG-20010904/DTD/svg10.dtd">
<svg version="1.0" xmlns="http://www.w3.org/2000/svg"
 width="274.000000pt" height="217.000000pt" viewBox="0 0 274.000000 217.000000"
 preserveAspectRatio="xMidYMid meet">

<g transform="translate(0.000000,217.000000) scale(0.100000,-0.100000)"
fill="#000000" stroke="none">
<path d="M1099 1888 c-156 -105 -245 -171 -255 -189 -11 -23 -14 -92 -14 -363
0 -184 3 -341 6 -350 8 -21 50 -21 58 0 3 9 6 165 6 348 0 305 1 334 18 348
47 42 438 298 454 298 10 0 120 -68 243 -152 l225 -152 1 -66 c0 -36 0 -180 0
-320 l0 -255 -207 0 -207 0 2 75 c1 41 6 79 11 83 4 5 45 13 91 19 100 12 170
40 205 81 38 45 46 74 45 156 -2 105 -9 111 -126 111 l-91 0 -47 54 c-70 81
-116 99 -265 104 -98 4 -132 1 -167 -12 -53 -21 -112 -83 -120 -128 -3 -18 -5
-141 -3 -273 3 -222 5 -242 23 -267 50 -67 152 -88 215 -46 74 50 75 55 78
301 2 122 1 232 -3 244 -6 25 -33 31 -53 11 -9 -9 -12 -75 -12 -234 0 -196 -2
-224 -17 -243 -45 -54 -132 -40 -159 25 -13 31 -15 76 -12 253 3 192 5 219 22
244 32 48 63 57 192 57 146 0 185 -16 245 -96 l39 -53 98 -3 97 -3 3 -50 c5
-102 -47 -148 -189 -165 -157 -19 -169 -33 -169 -200 l0 -110 275 0 275 0 0
358 c0 305 -2 361 -15 379 -16 22 -425 307 -474 330 -56 26 -73 18 -322 -149z"/>
<path d="M1364 1545 c-10 -25 4 -45 30 -45 27 0 42 26 25 46 -15 19 -48 18
-55 -1z"/>
<path d="M592 779 c-60 -30 -87 -72 -87 -136 0 -62 22 -97 86 -133 95 -52 251
-23 300 56 29 48 23 132 -12 170 -59 65 -200 86 -287 43z m108 -54 c0 -37 -45
-75 -86 -75 -41 0 -46 26 -11 57 54 49 97 57 97 18z m74 11 c34 -14 66 -50 66
-73 0 -8 -13 -13 -36 -13 -41 0 -94 45 -94 79 0 25 17 27 64 7z m-105 -122
c37 -31 43 -74 11 -74 -48 0 -100 44 -100 84 0 26 54 20 89 -10z m171 11 c0
-29 -53 -75 -94 -82 -39 -6 -39 -6 -32 23 10 41 50 74 92 74 23 0 34 -5 34
-15z"/>
<path d="M2351 784 c-42 -18 -60 -41 -61 -76 0 -53 61 -87 165 -89 80 -2 110
-11 110 -34 0 -47 -105 -59 -197 -21 -54 22 -58 22 -73 6 -25 -27 -18 -37 43
-60 77 -30 192 -31 247 -4 47 23 72 66 59 102 -16 45 -53 63 -140 69 -133 8
-172 29 -113 61 29 16 123 9 174 -12 33 -14 36 -14 50 7 8 12 15 25 15 29 0 4
-23 14 -52 23 -65 19 -182 19 -227 -1z"/>
<path d="M98 640 l3 -150 35 0 34 0 0 54 0 54 121 4 c118 3 121 4 145 31 34
40 32 90 -5 128 l-29 29 -154 0 -153 0 3 -150z m273 90 c21 -12 25 -40 7 -58
-8 -8 -47 -12 -110 -12 l-98 0 0 40 0 40 91 0 c50 0 99 -5 110 -10z"/>
<path d="M960 640 l0 -151 153 3 152 3 0 25 0 25 -117 3 -118 3 0 119 0 120
-35 0 -35 0 0 -150z"/>
<path d="M1447 768 c-8 -13 -44 -80 -81 -150 l-67 -128 35 0 c29 0 38 6 56 35
l22 35 97 0 97 0 17 -35 c14 -30 21 -35 53 -35 19 0 34 4 32 9 -1 4 -37 72
-78 149 l-75 142 -47 0 c-39 0 -50 -4 -61 -22z m93 -88 c16 -33 30 -62 30 -65
0 -3 -29 -5 -65 -5 -36 0 -65 3 -65 6 0 8 62 124 66 124 2 0 17 -27 34 -60z"/>
<path d="M1752 643 l3 -148 35 0 35 0 1 50 1 50 70 3 71 3 39 -55 c35 -51 41
-56 76 -56 20 0 37 3 37 6 0 4 -17 29 -37 57 -24 32 -33 52 -25 55 38 12 57
41 57 87 0 39 -5 51 -28 71 -27 23 -34 24 -183 24 l-155 0 3 -147z m282 81
c19 -18 19 -20 6 -45 -10 -17 -22 -19 -113 -19 l-103 0 4 40 4 40 93 0 c72 0
97 -4 109 -16z"/>
<path d="M2170 640 l0 -150 35 0 35 0 0 150 0 150 -35 0 -35 0 0 -150z"/>
<path d="M100 385 c0 -9 49 -83 59 -89 11 -7 67 82 57 91 -7 7 -6 8 -33 -35
l-20 -34 -22 36 c-20 31 -41 47 -41 31z"/>
<path d="M260 342 l0 -47 50 0 c27 0 50 3 50 8 0 4 -18 7 -41 7 -28 0 -39 4
-36 13 2 6 11 11 20 9 8 -1 18 2 22 8 4 6 -4 10 -19 10 -14 0 -26 5 -26 10 0
6 18 10 40 10 22 0 40 5 40 10 0 6 -22 10 -50 10 l-50 0 0 -48z"/>
<path d="M390 380 c0 -5 11 -10 25 -10 23 0 25 -4 25 -41 0 -24 4 -38 10 -34
6 3 10 22 10 41 0 27 4 34 20 34 11 0 20 5 20 10 0 6 -25 10 -55 10 -30 0 -55
-4 -55 -10z"/>
<path d="M540 343 l0 -48 50 0 c28 0 50 3 50 8 0 4 -18 7 -41 7 -28 0 -39 4
-36 13 2 6 13 12 24 12 12 0 25 3 29 8 4 4 -7 7 -24 7 -18 0 -32 5 -32 10 0 6
18 10 40 10 22 0 40 5 40 10 0 6 -22 10 -50 10 l-50 0 0 -47z"/>
<path d="M687 383 c-3 -7 -2 -69 2 -83 1 -3 6 3 12 13 14 23 38 21 67 -5 25
-23 25 -23 20 -2 -3 12 -1 29 4 38 15 27 -9 46 -58 46 -23 0 -45 -3 -47 -7z
m90 -25 c-5 -16 -69 -16 -75 0 -2 8 10 12 38 12 29 0 40 -4 37 -12z"/>
<path d="M840 345 c0 -25 5 -45 10 -45 6 0 10 20 10 45 0 25 -4 45 -10 45 -5
0 -10 -20 -10 -45z"/>
<path d="M910 339 c0 -31 4 -48 10 -44 6 3 10 20 10 38 l0 31 33 -32 c45 -44
57 -41 57 13 0 25 -4 45 -10 45 -5 0 -10 -13 -10 -30 0 -16 -4 -30 -8 -30 -5
0 -21 14 -37 30 -16 17 -32 30 -37 30 -4 0 -8 -23 -8 -51z"/>
<path d="M1083 350 c-28 -48 -30 -70 -5 -47 23 21 66 22 82 2 25 -30 21 -6 -5
39 -15 25 -32 46 -38 46 -7 0 -22 -18 -34 -40z m42 -18 c-22 -5 -27 1 -19 23
7 17 8 17 21 -1 12 -17 12 -19 -2 -22z"/>
<path d="M1220 339 c0 -31 4 -48 10 -44 6 3 10 13 10 21 0 21 43 17 58 -6 7
-12 17 -18 23 -14 7 4 6 10 -1 19 -8 9 -8 15 0 20 16 10 12 42 -6 49 -9 3 -33
6 -55 6 l-39 0 0 -51z m88 19 c-6 -17 -60 -17 -65 0 -3 8 7 12 32 12 25 0 35
-4 33 -12z"/>
<path d="M1360 382 c0 -5 11 -19 25 -32 14 -13 25 -29 25 -37 0 -7 5 -13 10
-13 6 0 10 8 10 17 0 9 12 30 27 45 19 20 22 28 11 28 -8 0 -23 -9 -33 -20
l-18 -20 -22 20 c-23 21 -35 25 -35 12z"/>
<path d="M1658 379 c-11 -6 -18 -22 -18 -38 0 -34 41 -56 83 -45 41 10 32 21
-15 20 -37 -1 -43 2 -46 21 -4 28 30 48 57 33 30 -16 49 -12 27 5 -23 17 -63
19 -88 4z"/>
<path d="M1806 371 c-23 -25 -17 -52 15 -70 34 -19 76 -7 91 24 9 21 8 28 -7
45 -23 26 -76 26 -99 1z m78 -7 c20 -19 20 -28 2 -44 -20 -16 -56 -9 -70 13
-9 15 -7 21 8 33 25 18 41 18 60 -2z"/>
<path d="M1960 345 c0 -25 5 -45 10 -45 6 0 10 14 10 30 0 17 3 30 6 30 3 0
17 -13 31 -30 13 -16 33 -30 44 -30 15 0 19 7 19 39 0 22 -4 43 -10 46 -9 6
-14 -14 -11 -42 3 -21 -14 -15 -44 17 -41 43 -55 39 -55 -15z"/>
<path d="M2130 375 c-17 -21 -6 -31 40 -39 53 -8 43 -30 -11 -23 -22 3 -39 1
-39 -3 0 -15 67 -23 90 -10 30 16 22 44 -15 48 -17 2 -37 5 -45 8 -26 9 11 23
44 17 21 -4 27 -3 22 5 -10 17 -71 15 -86 -3z"/>
<path d="M2270 358 c0 -49 13 -63 60 -63 25 0 45 6 50 15 13 20 13 67 0 75 -6
4 -10 -6 -10 -22 0 -41 -13 -55 -46 -51 -26 3 -29 7 -32 41 -4 45 -22 50 -22
5z"/>
<path d="M2440 344 l0 -50 45 0 c54 1 60 14 8 18 -34 3 -37 6 -41 38 -6 53
-12 50 -12 -6z"/>
<path d="M2530 380 c0 -5 9 -10 20 -10 16 0 20 -7 20 -34 0 -19 5 -38 10 -41
6 -4 10 10 10 34 0 37 2 41 25 41 14 0 25 5 25 10 0 6 -25 10 -55 10 -30 0
-55 -4 -55 -10z"/>
</g>
</svg>
